<?xml version="1.0" standalone="no"?>
<!DOCTYPE svg PUBLIC "-//W3C//DTD SVG 20010904//EN"
 "http://www.w3.org/TR/2001/REC-SVG-20010904/DTD/svg10.dtd">
<svg version="1.0" xmlns="http://www.w3.org/2000/svg"
 width="143.000000pt" height="143.000000pt" viewBox="0 0 143.000000 143.000000"
 preserveAspectRatio="xMidYMid meet">

<g transform="translate(0.000000,143.000000) scale(0.100000,-0.100000)"
fill="#000000" stroke="none">
<path d="M565 1414 c-87 -18 -233 -89 -304 -147 -159 -133 -261 -348 -261
-552 0 -204 102 -420 261 -552 73 -60 217 -128 311 -147 158 -32 305 -13 453
59 155 76 254 175 330 330 99 204 99 416 0 620 -76 155 -174 253 -330 330
-145 72 -301 92 -460 59z m350 -24 c123 -39 202 -87 295 -180 94 -94 142 -172
182 -300 19 -63 23 -96 22 -200 0 -106 -4 -137 -26 -202 -39 -117 -92 -204
-177 -289 -85 -85 -172 -138 -289 -177 -67 -22 -94 -26 -207 -26 -113 0 -140
4 -207 26 -120 40 -204 92 -293 182 -89 90 -138 172 -177 296 -33 107 -33 283
0 390 83 264 280 442 553 500 73 15 245 5 324 -20z"/>
<path d="M556 1355 c-236 -60 -425 -252 -481 -488 -19 -80 -19 -224 0 -304 44
-188 176 -352 349 -437 122 -59 115 -61 118 41 l3 88 164 3 c125 2 166 -1 173
-10 4 -7 8 -48 8 -91 0 -91 -6 -89 115 -31 173 82 306 249 351 439 11 51 15
100 12 180 -8 179 -63 307 -189 434 -76 77 -148 122 -251 158 -92 33 -277 42
-372 18z m167 -147 c-1 -18 4 -52 13 -74 11 -32 23 -45 55 -59 22 -10 49 -30
59 -45 22 -31 35 -91 26 -125 l-7 -26 -157 3 -157 3 -3 25 c-9 60 40 146 97
170 33 13 60 71 59 125 -1 52 1 61 10 48 5 -7 7 -28 5 -45z m198 -364 c65 -33
32 -39 -206 -39 -238 0 -269 6 -208 39 41 22 371 23 414 0z m-41 -129 l0 -75
-165 0 -165 0 0 75 0 75 165 0 165 0 0 -75z m28 -102 c-3 -16 -20 -18 -193
-18 -173 0 -190 2 -193 18 -3 16 11 17 193 17 182 0 196 -1 193 -17z m-28
-108 c0 -60 -3 -75 -15 -75 -11 0 -15 11 -15 43 0 23 -7 53 -16 66 l-16 23
-19 -29 c-10 -15 -19 -45 -19 -65 0 -27 -4 -38 -15 -38 -11 0 -15 11 -15 43 0
25 -8 51 -18 65 l-18 24 -17 -26 c-9 -14 -17 -43 -17 -66 0 -29 -4 -40 -15
-40 -11 0 -15 11 -15 38 0 20 -9 50 -19 65 l-19 29 -16 -23 c-9 -13 -16 -43
-16 -66 0 -32 -4 -43 -15 -43 -12 0 -15 15 -15 75 l0 75 165 0 165 0 0 -75z
m-380 -85 c0 -6 78 -10 215 -10 137 0 215 4 215 10 0 6 5 10 10 10 6 0 10 -32
10 -75 l0 -75 -235 0 -235 0 0 75 c0 43 4 75 10 75 6 0 10 -4 10 -10z"/>
<path d="M680 750 c-11 -11 -20 -27 -20 -35 0 -8 9 -24 20 -35 11 -11 27 -20
35 -20 8 0 24 9 35 20 11 11 20 27 20 35 0 8 -9 24 -20 35 -11 11 -27 20 -35
20 -8 0 -24 -9 -35 -20z m43 -30 c3 -11 1 -18 -4 -14 -5 3 -9 12 -9 20 0 20 7
17 13 -6z"/>
</g>
</svg>
